<?xml version="1.0" encoding="UTF-8" standalone="no"?>
<!DOCTYPE svg PUBLIC "-//W3C//DTD SVG 1.1//EN" "http://www.w3.org/Graphics/SVG/1.1/DTD/svg11.dtd">
<!-- Created with Vectornator (http://vectornator.io/) -->
<svg height="100%" stroke-miterlimit="10" style="fill-rule:nonzero;clip-rule:evenodd;stroke-linecap:round;stroke-linejoin:round;" version="1.1" viewBox="0 0 133.32 35" width="100%" xml:space="preserve" xmlns="http://www.w3.org/2000/svg" xmlns:vectornator="http://vectornator.io" xmlns:xlink="http://www.w3.org/1999/xlink">
<defs/>
<clipPath id="ArtboardFrame">
<rect height="35" width="133.32" x="0" y="0"/>
</clipPath>
<g clip-path="url(#ArtboardFrame)" id="Untitled" vectornator:layerName="Untitled">
<g opacity="1">
<clipPath id="ClipPath">
<path d="M5.86018 5.58298L29.69 5.58298L29.69 29.4128L5.86018 29.4128L5.86018 5.58298Z" fill-rule="evenodd"/>
</clipPath>
<g clip-path="url(#ClipPath)">
<path d="M17.7751 5.58298C11.1932 5.58298 5.86018 10.9179 5.86018 17.4979C5.86018 24.0779 11.1932 29.4128 17.7751 29.4128C24.3551 29.4128 29.69 24.0779 29.69 17.4979C29.69 10.9179 24.3551 5.58298 17.7751 5.58298" fill="#ffffff" fill-rule="evenodd" opacity="1" stroke="none"/>
</g>
</g>
<g opacity="1">
<clipPath id="ClipPath_2">
<path d="M-0.0313344 0.104616L34.8383 0.104616L34.8383 35.1046L-0.0313344 35.1046L-0.0313344 0.104616Z" fill-rule="evenodd"/>
</clipPath>
<g clip-path="url(#ClipPath_2)">
<path d="M-0.0313344 0.104616L-0.0313344 35.1046L34.8383 35.1046L34.8383 0.104616L-0.0313344 0.104616M34.1212 34.3828L0.670012 34.3828L0.670012 0.810072L34.1212 0.810072L34.1212 34.3828" fill="#ffffff" fill-rule="evenodd" opacity="1" stroke="none"/>
</g>
</g>
<g opacity="1">
<clipPath id="ClipPath_3">
<path d="M34.6198 0.104616L133.29 0.104616L133.29 35.1046L34.6198 35.1046L34.6198 0.104616Z" fill-rule="evenodd"/>
</clipPath>
<g clip-path="url(#ClipPath_3)">
<path d="M34.6198 0.104616L34.6198 35.1046L133.29 35.1046L133.29 0.104616L34.6198 0.104616M132.568 34.3828L35.3253 34.3828L35.3253 0.810072L132.568 0.810072L132.568 34.3828" fill="#ffffff" fill-rule="evenodd" opacity="1" stroke="none"/>
</g>
</g>
<g opacity="1">
<clipPath id="ClipPath_4">
<path d="M6.6708 6.39369L29.0114 6.39369L29.0114 28.7341L6.6708 28.7341L6.6708 6.39369Z" fill-rule="evenodd"/>
</clipPath>
<g clip-path="url(#ClipPath_4)">
<path d="M15.8087 27.6633C15.6147 27.5004 15.4732 27.3009 15.5139 27.0814C15.6244 26.4822 16.022 27.0372 16.022 26.7056C16.022 26.372 15.8222 26.306 15.8222 26.306C16.1112 26.2399 16.2663 25.9297 16.4661 25.7748C16.6658 25.6194 16.7977 24.9541 16.7977 24.9541C17.7286 24.9775 17.8177 23.6683 18.0388 23.3814C18.2599 23.0924 19.28 22.8055 18.5275 22.4505C17.7731 22.0955 17.5521 22.1849 16.9315 21.9406C16.3109 21.6964 15.8455 21.7197 15.8455 21.7197C15.9347 21.6517 16.0452 20.8331 15.2463 20.7442C14.4492 20.6548 13.8287 20.0343 13.8287 20.0343C13.053 20.1023 12.5429 19.658 12.5429 19.658C11.9456 19.6366 11.68 20.2572 11.68 20.2572C11.3018 20.0129 10.9915 20.2572 10.9915 20.2572C10.7045 20.0789 10.6812 19.7687 10.6812 19.7687C10.6812 19.0374 10.4834 19.1481 10.4834 19.1481C9.92877 19.1481 10.0393 18.9713 10.0393 18.9713C10.018 18.6824 10.1945 18.1299 10.1945 18.1299C9.86284 18.1299 9.68442 18.3955 9.68442 18.3955C8.95334 19.3263 8.62171 17.3524 8.97657 16.8654C9.32955 16.3789 9.75233 16.7105 9.75233 16.7105C9.81826 16.5551 10.594 16.3342 10.6153 16.7105C10.6386 17.0868 10.9915 17.5306 10.9915 17.5306C11.0594 17.1042 10.976 16.2955 10.976 16.2955C11.8739 15.7464 11.7401 15.3974 11.7401 15.3974C12.0232 14.3176 12.8047 14.4511 12.8047 14.4511C12.6864 13.9681 13.6018 13.7531 13.6018 13.7531C13.4078 14.1835 14.234 13.7358 14.234 13.7358C14.4822 13.5029 14.1331 13.5531 14.1331 13.5531C13.6348 13.6523 13.8345 13.0372 13.8345 13.0372C13.3109 12.9965 13.0588 13.2507 12.9812 13.3475C13.34 12.8377 13.7356 12.789 13.7356 12.789C14.6277 12.8377 14.8449 12.7309 14.8972 12.6728C14.7673 12.9191 14.4609 13.2373 15.097 13.2547C15.7621 13.2701 15.8785 12.9871 15.4635 12.9384C15.0485 12.8883 15.1648 12.7056 15.1648 12.7056C15.5953 12.023 14.6315 11.742 14.649 11.6913C14.6645 11.6412 14.6315 10.627 14.4492 10.9273C14.2669 11.2262 13.8849 11.2262 13.8849 11.2262C13.8849 11.2262 13.8345 10.6116 13.2353 10.5609C12.6379 10.5108 12.7369 10.695 12.7369 11.0767C12.7369 11.459 13.1189 11.4258 12.5875 11.6913C12.0562 11.9575 12.1221 12.223 12.0387 12.5214C11.9553 12.8223 11.839 12.5721 11.839 12.5721C11.8739 11.6412 11.6896 11.742 11.6896 11.742C10.6773 11.4258 11.0749 11.0767 11.5907 10.5108C12.1066 9.94631 12.605 10.2293 12.605 10.2293C13.0859 10.2953 12.4712 9.88029 12.605 9.88029C12.7369 9.88029 13.0859 9.57993 13.3031 9.36447C13.5184 9.14901 13.2353 9.09887 12.8861 9.31383C12.539 9.53128 12.8377 8.76724 12.8377 8.76724C12.6709 8.7166 12.6205 9.29844 11.773 9.44787C11.647 9.47121 11.5442 9.47865 11.4608 9.47865C13.2158 8.09057 15.4325 7.2605 17.8391 7.2605C19.9587 7.2605 21.929 7.9044 23.5677 9.00355C23.5618 9.00554 23.5558 9.00752 23.5524 9.00951C23.3235 9.11029 23.4124 9.22099 23.4124 9.22099C23.5231 9.60873 23.6685 10.274 23.4357 10.4388C23.2031 10.6056 23.3255 10.7491 23.3255 10.7491C23.946 11.9902 23.7907 10.7491 24.1784 11.1934C24.5666 11.6353 24.1997 11.814 24.6093 11.8254C25.0204 11.8353 25.1753 11.1815 24.8203 10.9819C24.4653 10.7838 24.3765 9.98504 24.3765 9.98504C24.5547 9.89568 24.5761 10.0411 24.5761 10.0411C24.5219 10.1633 24.7548 10.7838 24.9638 10.8618C25.1753 10.9372 25.2527 10.9933 25.3307 11.3597C25.4081 11.7246 25.4955 11.6799 25.4955 11.6799C25.6176 12.1123 25.0531 11.9361 24.4539 12.0677C23.8567 12.2017 24.0235 12.5567 24.0235 12.5567L23.8234 12.5567L23.7132 12.8317C22.7144 13.3421 23.5136 13.4096 23.5136 13.4096C23.5136 13.4096 23.9555 14.0728 23.4163 14.0962C22.8793 14.1175 22.7377 14.4278 22.6931 14.8488C22.6485 15.2713 23.2904 15.3587 23.2904 15.3587L23.4163 15.6029C23.4163 15.6029 22.8482 16.0453 22.7144 16.5338C22.5825 17.0208 21.8728 17.62 21.7835 17.7516C21.6963 17.8856 22.0066 18.5722 21.7176 18.9713C21.4306 19.369 21.7176 19.7687 21.7176 19.7687C22.0279 19.792 22.4933 21.2987 23.0693 21.0098C23.1081 20.9904 23.1449 20.973 23.1837 20.9557C23.6993 20.7268 24.0662 20.7655 24.0662 20.7655C24.7756 20.4552 24.8417 21.0311 24.8417 21.0311C25.3073 20.8757 25.2413 21.3414 25.2413 21.3414C24.6654 21.9853 25.1966 21.9406 24.997 22.8268C24.799 23.713 24.2211 23.7363 24.1784 24.4229C24.1342 25.1095 23.3349 26.0617 23.3349 26.0617C23.3349 26.0617 23.3756 26.1491 23.5345 26.1431C21.9018 27.2309 19.9432 27.8653 17.8391 27.8653C17.1448 27.8653 16.4661 27.7953 15.8087 27.6633ZM7.53765 17.5619C7.53765 17.2804 7.54927 17.0034 7.57062 16.7259C7.83825 17.3892 8.25711 17.7501 8.2455 17.9963C8.22221 18.4168 8.133 18.6382 8.95334 18.9713C9.77363 19.303 10.1945 19.8133 10.3729 19.9896C10.5493 20.1683 10.9256 20.6548 11.1699 20.4786C11.4143 20.2999 12.0115 21.0098 11.7013 21.2987C11.391 21.5857 11.5461 22.03 11.5461 22.03C11.5461 22.03 12.0329 23.6916 13.0975 23.9786C14.1622 24.2675 13.9838 24.6438 13.9838 24.6438C13.9586 26.2126 14.775 27.1087 15.5081 27.5992C10.9469 26.5408 7.53765 22.443 7.53765 17.5619ZM24.4773 14.2729C24.4539 14.0401 24.8417 14.1409 24.8417 14.1409C24.9196 13.8847 25.1425 13.986 25.1425 13.986C25.1519 14.1061 25.5069 14.4725 25.7958 14.5832C26.0828 14.6934 26.1935 14.8756 25.9393 14.9982C25.6851 15.1223 25.9065 15.2152 25.9065 15.2152C26.0614 15.3373 26.2168 14.959 26.2049 14.7267C26.1935 14.4958 26.0828 14.4511 25.8946 14.3176C25.7065 14.1835 25.4508 13.7626 25.4508 13.7626C26.4164 14.2397 26.4939 14.9262 26.6373 15.1258C26.7813 15.3259 26.7366 15.5915 26.8821 15.2693C27.0256 14.9496 26.4591 14.8389 26.8702 14.5832C27.2792 14.329 27.1243 13.5977 27.1243 13.5977C27.3006 13.8906 27.4073 13.8733 27.448 13.8479C27.5141 14.0148 27.5741 14.1835 27.6302 14.3543C27.5801 14.3211 27.5354 14.2997 27.5007 14.3176C27.4133 14.3618 27.5453 14.4725 27.2792 14.5286C27.0136 14.5832 27.1571 14.8935 27.1571 14.8935C27.2579 15.4808 27.867 15.5021 27.867 15.5021L27.867 16.3342C27.3473 16.3456 26.8821 16.0026 26.8821 16.0026C26.5718 15.9132 26.6145 16.4002 26.6145 16.4002C25.7278 15.5374 25.4741 16.4777 25.5729 15.6262C25.6737 14.7728 24.3551 15.6029 23.8681 15.6243C23.3796 15.6476 23.6124 15.3045 23.6124 15.3045C24.167 15.3919 24.1551 14.4397 24.2117 14.5052C24.2658 14.5713 24.4986 14.5052 24.4773 14.2729ZM17.8391 6.39171C11.68 6.39171 6.66886 11.4024 6.66886 17.5619C6.66886 23.7229 11.68 28.7341 17.8391 28.7341C24.0002 28.7341 29.0114 23.7229 29.0114 17.5619C29.0114 11.4024 24.0002 6.39171 17.8391 6.39171" fill="#000000" fill-rule="evenodd" opacity="1" stroke="none"/>
</g>
</g>
<path d="M10.5048 17.9963C10.5048 17.9963 10.8112 17.9516 11.2998 18.3066C11.7905 18.6616 11.967 18.3066 11.967 18.3066C11.967 18.3066 10.881 17.6274 10.5048 17.9963" fill="#000000" fill-rule="evenodd" opacity="1" stroke="none"/>
<path d="M12.1454 18.5389C12.1454 18.5389 12.3005 18.7718 12.5875 18.7157C12.8765 18.6616 13.02 18.667 13.1751 18.7251C13.1751 18.7251 12.4324 18.2733 12.1454 18.5389" fill="#000000" fill-rule="evenodd" opacity="1" stroke="none"/>
<path d="M22.7261 11.808C22.7261 11.9823 22.9995 11.9748 22.9258 12.3238C22.8502 12.6728 22.9549 12.8282 23.0499 12.8123C23.0499 12.8123 23.5737 12.7463 23.6745 12.5974C23.7733 12.4479 23.9068 12.2891 23.4744 12.1724C23.0422 12.0582 23.0247 11.459 22.9413 11.3677C22.8599 11.2763 22.6019 11.3582 22.6349 11.1755C22.6679 10.9933 22.1869 11.2262 22.377 11.4258C22.569 11.6258 22.7261 11.6333 22.7261 11.808" fill="#000000" fill-rule="evenodd" opacity="1" stroke="none"/>
<path d="M22.3324 12.5974C22.4022 12.5567 22.6601 12.5214 22.6756 12.2305C22.6931 11.9396 22.5729 11.8333 22.5049 11.8333C22.4351 11.8333 22.1889 11.8333 22.2606 12.2151C22.3324 12.5974 22.3324 12.5974 22.3324 12.5974" fill="#000000" fill-rule="evenodd" opacity="1" stroke="none"/>
<path d="M49.3789 9.7249C46.6851 9.7249 44.5385 11.8716 44.5385 14.54C44.5385 17.2338 46.6851 19.3804 49.3789 19.3804C51.5623 19.3804 53.498 17.8777 54.0446 15.7558L53.909 15.7558C53.2631 17.5301 51.6611 18.8333 49.7373 18.7832C47.7768 18.7211 46.0278 16.9716 46.0278 14.54C46.0278 11.9589 47.9009 10.1846 49.9121 10.2948C51.737 10.3936 53.0636 11.7728 53.5228 13.3609L53.6841 13.3609L53.6841 11.2257C53.3252 11.2396 52.8153 10.8901 52.5185 10.6672C51.5122 9.98455 50.558 9.7249 49.3789 9.7249Z" fill="#ffffff" fill-rule="evenodd" opacity="1" stroke="none"/>
<path d="M58.1145 13.1241C56.439 13.1241 55.0737 14.4894 55.0737 16.1649C55.0737 17.8404 56.439 19.2057 58.1145 19.2057C59.79 19.2057 61.1553 17.8404 61.1553 16.1649C61.1553 14.4894 59.79 13.1241 58.1145 13.1241ZM59.443 18.4109C58.5608 18.9326 57.2576 18.3488 56.5263 17.0957C55.7936 15.8546 55.9058 14.4273 56.7865 13.9194C57.6667 13.3977 58.9699 13.9815 59.7031 15.2226C60.4359 16.4752 60.3237 17.9025 59.443 18.4109Z" fill="#ffffff" fill-rule="evenodd" opacity="1" stroke="none"/>
<path d="M62.1844 13.1241C62.3592 13.5838 62.4073 14.0068 62.4073 14.6388L62.4073 17.6915C62.4073 18.3121 62.3592 18.7345 62.1844 19.2057C62.7315 19.2057 63.2761 19.2057 63.8232 19.2057C63.637 18.7345 63.6003 18.3121 63.6003 17.6915L63.6003 14.6507C64.1082 14.2411 64.7407 13.8206 65.1497 13.7953C65.7336 13.7586 66.1307 14.0436 66.1307 14.9238L66.1307 17.6915C66.1307 18.3121 66.094 18.7345 65.9078 19.2057C66.4529 19.2057 66.9995 19.2057 67.5466 19.2057C67.3719 18.7345 67.3217 18.3121 67.3217 17.6915C67.3217 16.7994 67.3217 15.6203 67.3217 14.6755C67.3217 14.6641 67.3217 14.6641 67.3217 14.6507C67.8316 14.2411 68.4641 13.8206 68.8731 13.7953C69.457 13.7586 69.8541 14.0436 69.8541 14.9238L69.8541 17.6915C69.8541 18.3121 69.8174 18.7345 69.6431 19.2057C70.1897 19.2057 70.7348 19.2057 71.268 19.2057C71.0953 18.7345 71.0585 18.3121 71.0585 17.6915C71.0585 16.7994 71.0585 15.6203 71.0585 14.6755C71.0585 13.6459 70.4866 13.1241 69.4684 13.1241C68.7624 13.1241 67.9557 13.6712 67.285 14.2163C67.1355 13.485 66.6024 13.1241 65.747 13.1241C65.039 13.1241 64.2576 13.6578 63.5864 14.1791C63.575 13.8206 63.5243 13.485 63.3754 13.1241L62.1844 13.1241Z" fill="#ffffff" fill-rule="evenodd" opacity="1" stroke="none"/>
<path d="M72.323 13.1241C72.4973 13.5838 72.5459 14.0068 72.5459 14.6388L72.5459 17.6915C72.5459 18.3121 72.4973 18.7345 72.323 19.2057C72.8696 19.2057 73.4147 19.2057 73.9618 19.2057C73.7756 18.7345 73.7384 18.3121 73.7384 17.6915L73.7384 14.6507C74.2468 14.2411 74.8787 13.8206 75.2883 13.7953C75.8716 13.7586 76.2693 14.0436 76.2693 14.9238L76.2693 17.6915C76.2693 18.3121 76.2326 18.7345 76.0464 19.2057C76.5915 19.2057 77.1381 19.2057 77.6852 19.2057C77.5104 18.7345 77.4603 18.3121 77.4603 17.6915C77.4603 16.7994 77.4603 15.6203 77.4603 14.6755C77.4603 14.6641 77.4603 14.6641 77.4603 14.6507C77.9702 14.2411 78.6021 13.8206 79.0117 13.7953C79.5951 13.7586 79.9927 14.0436 79.9927 14.9238L79.9927 17.6915C79.9927 18.3121 79.956 18.7345 79.7812 19.2057C80.3283 19.2057 80.8734 19.2057 81.4066 19.2057C81.2339 18.7345 81.1971 18.3121 81.1971 17.6915C81.1971 16.7994 81.1971 15.6203 81.1971 14.6755C81.1971 13.6459 80.6252 13.1241 79.607 13.1241C78.901 13.1241 78.0943 13.6712 77.4231 14.2163C77.2741 13.485 76.7404 13.1241 75.8855 13.1241C75.1776 13.1241 74.3962 13.6578 73.725 14.1791C73.7136 13.8206 73.6629 13.485 73.5135 13.1241L72.323 13.1241Z" fill="#ffffff" fill-rule="evenodd" opacity="1" stroke="none"/>
<path d="M85.5024 13.1241C83.8268 13.1241 82.4616 14.4894 82.4616 16.1649C82.4616 17.8404 83.8268 19.2057 85.5024 19.2057C87.1779 19.2057 88.5431 17.8404 88.5431 16.1649C88.5431 14.4894 87.1779 13.1241 85.5024 13.1241ZM86.8304 18.4109C85.9482 18.9326 84.645 18.3488 83.9137 17.0957C83.1809 15.8546 83.2931 14.4273 84.1739 13.9194C85.0541 13.3977 86.3573 13.9815 87.0905 15.2226C87.8233 16.4752 87.7111 17.9025 86.8304 18.4109Z" fill="#ffffff" fill-rule="evenodd" opacity="1" stroke="none"/>
<path d="M89.5718 13.1241C89.7465 13.5838 89.7952 14.0068 89.7952 14.6388L89.7952 17.6915C89.7952 18.3121 89.7465 18.7345 89.5718 19.2057C90.1189 19.2057 90.664 19.2057 91.2106 19.2057C91.0244 18.7345 90.9877 18.3121 90.9877 17.6915L90.9877 14.7262C90.9877 14.7009 90.9877 14.6641 90.9877 14.6274C91.3834 14.4025 91.9672 14.1056 92.4885 13.9309C93.4059 13.6345 94.1392 13.7333 94.1392 14.9238L94.1392 17.6915C94.1392 18.3121 94.0885 18.7345 93.9158 19.2057C94.4609 19.2057 95.008 19.2057 95.5526 19.2057C95.3803 18.7345 95.3297 18.3121 95.3297 17.6915C95.3297 16.7994 95.3297 15.6203 95.3297 14.6755C95.3297 13.6459 94.7712 13.1241 93.7549 13.1241C92.7739 13.1241 91.7557 13.6826 90.9743 14.1677C90.9624 13.8067 90.9003 13.4716 90.7628 13.1241L89.5718 13.1241Z" fill="#ffffff" fill-rule="evenodd" opacity="1" stroke="none"/>
<path d="M96.5956 19.2057C97.8253 19.2057 99.0526 19.2057 100.282 19.2057C102.85 19.2057 105.159 17.6041 105.159 14.5514C105.159 11.4992 102.85 9.89716 100.282 9.89716C99.0526 9.89716 97.8253 9.89716 96.5956 9.89716C96.7704 10.3708 96.8185 10.9154 96.8185 11.5499C96.8185 12.5656 96.8185 16.5372 96.8185 17.5555C96.8185 18.1879 96.7704 18.7345 96.5956 19.2057ZM98.2458 10.3822L100.282 10.3822C102.043 10.3822 103.693 11.9843 103.693 14.5514C103.693 17.1211 102.043 18.7211 100.282 18.7211L98.2458 18.7211L98.2458 10.3822Z" fill="#ffffff" fill-rule="evenodd" opacity="1" stroke="none"/>
<path d="M112.678 19.2057L112.766 17.7903L112.653 17.7903C112.554 18.0519 112.132 18.7211 111.017 18.7211L107.863 18.7211L107.863 15.1859L109.228 15.1859C110.345 15.1859 110.768 15.8546 110.867 16.1167L110.978 16.1167C110.978 15.3333 110.978 14.5514 110.978 13.77L110.867 13.77C110.768 14.0301 110.345 14.7009 109.228 14.7009L107.863 14.7009L107.863 10.3822L110.668 10.3822C111.785 10.3822 112.194 11.0534 112.306 11.3131L112.405 11.3131L112.318 9.89716L106.213 9.89716C106.388 10.3708 106.436 10.9154 106.436 11.5499C106.436 12.5656 106.436 16.5372 106.436 17.5555C106.436 18.1879 106.388 18.7345 106.213 19.2057L112.678 19.2057Z" fill="#ffffff" fill-rule="evenodd" opacity="1" stroke="none"/>
<path d="M115.892 9.89716L113.808 9.89716C114.168 10.2328 114.676 10.8533 114.961 11.2624L117.517 14.9238L115.421 17.4934C114.851 18.176 114.478 18.597 113.808 19.2057L114.899 19.2057C115.099 18.7599 115.396 18.3369 115.657 17.9645L117.804 15.3333L119.714 18.0772C119.963 18.4496 120.174 18.7599 120.372 19.2057L122.456 19.2057C122.084 18.8706 121.588 18.25 121.291 17.8404L118.747 14.1791L120.843 11.6119C121.401 10.9293 121.774 10.5063 122.456 9.89716L121.365 9.89716C121.153 10.3455 120.868 10.766 120.609 11.1383L118.462 13.77L116.55 11.0281C116.29 10.6557 116.09 10.3455 115.892 9.89716Z" fill="#ffffff" fill-rule="evenodd" opacity="1" stroke="none"/>
<path d="M50.5937 25.6144L50.904 25.6144L50.904 23.2637L51.9689 23.2637L51.9689 22.9887L49.5288 22.9887L49.5288 23.2637L50.5937 23.2637L50.5937 25.6144Z" fill="#ffffff" fill-rule="evenodd" opacity="1" stroke="none"/>
<path d="M53.0378 25.6144L53.3465 25.6144L53.3465 24.3787L55.171 24.3787L55.171 25.6144L55.4793 25.6144L55.4793 22.9887L55.171 22.9887L55.171 24.1057L53.3465 24.1057L53.3465 22.9887L53.0378 22.9887L53.0378 25.6144Z" fill="#ffffff" fill-rule="evenodd" opacity="1" stroke="none"/>
<path d="M56.7279 25.6144L58.9307 25.6144L58.9307 25.3389L57.0282 25.3389L57.0282 24.3926L58.7445 24.3926L58.7445 24.125L57.0282 24.125L57.0282 23.2637L58.8939 23.2637L58.8939 22.9887L56.7279 22.9887L56.7279 25.6144Z" fill="#ffffff" fill-rule="evenodd" opacity="1" stroke="none"/>
<path d="M61.9893 25.6144L62.2936 25.6144L62.2936 24.6195L63.43 24.6195C64.0292 24.6195 64.4056 24.2993 64.4056 23.8048C64.4056 23.3104 64.0332 22.9887 63.43 22.9887L61.9893 22.9887L61.9893 25.6144ZM62.2936 24.344L62.2936 23.2637L63.4107 23.2637C63.8351 23.2637 64.0953 23.4772 64.0953 23.8048C64.0953 24.1325 63.8312 24.344 63.4107 24.344L62.2936 24.344Z" fill="#ffffff" fill-rule="evenodd" opacity="1" stroke="none"/>
<path d="M65.5151 25.6144L67.7184 25.6144L67.7184 25.3389L65.816 25.3389L65.816 24.3926L67.5322 24.3926L67.5322 24.125L65.816 24.125L65.816 23.2637L67.6812 23.2637L67.6812 22.9887L65.5151 22.9887L65.5151 25.6144Z" fill="#ffffff" fill-rule="evenodd" opacity="1" stroke="none"/>
<path d="M70.3814 25.7072C71.3375 25.7072 71.9814 25.1373 71.9814 24.3033C71.9814 23.4658 71.3375 22.8953 70.3814 22.8953C69.4277 22.8953 68.7838 23.4658 68.7838 24.3033C68.7838 25.1373 69.4277 25.7072 70.3814 25.7072ZM70.3814 25.4322C69.6138 25.4322 69.0921 24.9745 69.0921 24.3033C69.0921 23.6306 69.6138 23.1709 70.3814 23.1709C71.1474 23.1709 71.6692 23.6306 71.6692 24.3033C71.6692 24.9745 71.1474 25.4322 70.3814 25.4322Z" fill="#ffffff" fill-rule="evenodd" opacity="1" stroke="none"/>
<path d="M73.163 25.6144L73.4673 25.6144L73.4673 24.6195L74.6037 24.6195C75.2029 24.6195 75.5792 24.2993 75.5792 23.8048C75.5792 23.3104 75.2069 22.9887 74.6037 22.9887L73.163 22.9887L73.163 25.6144ZM73.4673 24.344L73.4673 23.2637L74.5843 23.2637C75.0093 23.2637 75.269 23.4772 75.269 23.8048C75.269 24.1325 75.0053 24.344 74.5843 24.344L73.4673 24.344Z" fill="#ffffff" fill-rule="evenodd" opacity="1" stroke="none"/>
<path d="M76.6893 25.6144L78.5277 25.6144L78.5277 25.3389L76.9976 25.3389L76.9976 22.9887L76.6893 22.9887L76.6893 25.6144Z" fill="#ffffff" fill-rule="evenodd" opacity="1" stroke="none"/>
<path d="M79.601 25.6144L81.8038 25.6144L81.8038 25.3389L79.9014 25.3389L79.9014 24.3926L81.6176 24.3926L81.6176 24.125L79.9014 24.125L79.9014 23.2637L81.767 23.2637L81.767 22.9887L79.601 22.9887L79.601 25.6144Z" fill="#ffffff" fill-rule="evenodd" opacity="1" stroke="none"/>
<path d="M82.8811 24.0357L83.0265 24.0357L83.0265 22.9887L82.8851 22.9887L82.8811 24.0357Z" fill="#ffffff" fill-rule="evenodd" opacity="1" stroke="none"/>
<path d="M85.4607 25.7072C86.1319 25.7072 86.5777 25.3682 86.5777 24.8851C86.5777 24.5088 86.2947 24.278 85.6722 24.1657L85.1251 24.065C84.7373 23.9989 84.5745 23.8709 84.5745 23.6519C84.5745 23.3764 84.8614 23.1709 85.2864 23.1709C85.6955 23.1709 86.0231 23.3878 86.1239 23.6961L86.3875 23.5705C86.254 23.1709 85.8216 22.8953 85.2824 22.8953C84.6832 22.8953 84.2622 23.2135 84.2622 23.6887C84.2622 24.055 84.5045 24.2586 85.0476 24.3594L85.6021 24.4641C86.0718 24.5495 86.2694 24.691 86.2694 24.9218C86.2694 25.2128 85.9551 25.4322 85.4686 25.4322C84.9101 25.4322 84.4563 25.1333 84.3729 24.7123L84.0899 24.829C84.2215 25.3428 84.7686 25.7072 85.4607 25.7072Z" fill="#ffffff" fill-rule="evenodd" opacity="1" stroke="none"/>
<path d="M89.6244 25.6144L91.8272 25.6144L91.8272 25.3389L89.9248 25.3389L89.9248 24.3926L91.641 24.3926L91.641 24.125L89.9248 24.125L89.9248 23.2637L91.7904 23.2637L91.7904 22.9887L89.6244 22.9887L89.6244 25.6144Z" fill="#ffffff" fill-rule="evenodd" opacity="1" stroke="none"/>
<path d="M92.7804 25.6144L93.1721 25.6144L94.1104 24.4606L95.0665 25.6144L95.4622 25.6144L94.3219 24.2472L95.4255 22.9887L95.0298 22.9887L94.1104 24.057L93.2128 22.9887L92.8191 22.9887L93.8974 24.2472L92.7804 25.6144Z" fill="#ffffff" fill-rule="evenodd" opacity="1" stroke="none"/>
<path d="M98.0458 25.7072C98.7865 25.7072 99.3529 25.3096 99.5024 24.6796L99.2075 24.5982C99.0928 25.108 98.637 25.4322 98.0458 25.4322C97.2718 25.4322 96.7793 24.9918 96.7753 24.3033C96.7753 23.6112 97.2311 23.1709 97.945 23.1709C98.4588 23.1709 98.8545 23.4499 98.9652 23.8942L99.2521 23.8009C99.0928 23.2463 98.5829 22.8953 97.945 22.8953C97.0375 22.8953 96.467 23.4444 96.467 24.3033C96.467 25.1606 97.0782 25.7072 98.0458 25.7072Z" fill="#ffffff" fill-rule="evenodd" opacity="1" stroke="none"/>
<path d="M100.642 25.6144L100.95 25.6144L100.95 24.3787L102.775 24.3787L102.775 25.6144L103.083 25.6144L103.083 22.9887L102.775 22.9887L102.775 24.1057L100.95 24.1057L100.95 22.9887L100.642 22.9887L100.642 25.6144Z" fill="#ffffff" fill-rule="evenodd" opacity="1" stroke="none"/>
<path d="M104.155 25.6144L104.487 25.6144L104.778 24.9859L106.312 24.9859L106.607 25.6144L106.934 25.6144L105.732 22.9887L105.362 22.9887L104.155 25.6144ZM104.894 24.7089L105.546 23.2756L105.552 23.2756L106.2 24.7089L104.894 24.7089Z" fill="#ffffff" fill-rule="evenodd" opacity="1" stroke="none"/>
<path d="M108.003 25.6144L108.311 25.6144L108.311 23.3471L108.319 23.3471L110.039 25.6144L110.452 25.6144L110.452 22.9887L110.14 22.9887L110.14 25.2574L110.136 25.2574L108.416 22.9887L108.003 22.9887L108.003 25.6144Z" fill="#ffffff" fill-rule="evenodd" opacity="1" stroke="none"/>
<path d="M113.2 25.7072C113.769 25.7072 114.227 25.461 114.477 25.0673L114.481 25.0673L114.514 25.6144L114.776 25.6144L114.776 24.1657L112.672 24.1657L112.672 24.4333L114.47 24.4333C114.47 24.9993 113.923 25.4322 113.238 25.4322C112.49 25.4322 111.945 24.9551 111.945 24.3033C111.945 23.636 112.455 23.1689 113.17 23.1709C113.632 23.1709 114.06 23.4171 114.179 23.7681L114.466 23.6753C114.313 23.2195 113.762 22.8953 113.17 22.8953C112.28 22.8953 111.636 23.4891 111.636 24.3033C111.636 25.116 112.292 25.7072 113.2 25.7072Z" fill="#ffffff" fill-rule="evenodd" opacity="1" stroke="none"/>
<path d="M115.96 25.6144L118.163 25.6144L118.163 25.3389L116.261 25.3389L116.261 24.3926L117.977 24.3926L117.977 24.125L116.261 24.125L116.261 23.2637L118.126 23.2637L118.126 22.9887L115.96 22.9887L115.96 25.6144Z" fill="#ffffff" fill-rule="evenodd" opacity="1" stroke="none"/>
</g>
</svg>
