<svg xmlns="http://www.w3.org/2000/svg" xmlns:xlink="http://www.w3.org/1999/xlink" width="500" zoomAndPan="magnify" viewBox="0 0 375 374.999991" height="500" preserveAspectRatio="xMidYMid meet" version="1.0"><defs><g/><clipPath id="id1"><path d="M 64.878906 163.34375 L 112.878906 163.34375 L 112.878906 211.34375 L 64.878906 211.34375 Z M 64.878906 163.34375 " clip-rule="nonzero"/></clipPath><clipPath id="id2"><path d="M 53.011719 152.308594 L 123.511719 152.308594 L 123.511719 222.808594 L 53.011719 222.808594 Z M 53.011719 152.308594 " clip-rule="nonzero"/></clipPath><clipPath id="id3"><path d="M 122.808594 152.308594 L 321.558594 152.308594 L 321.558594 222.808594 L 122.808594 222.808594 Z M 122.808594 152.308594 " clip-rule="nonzero"/></clipPath><clipPath id="id4"><path d="M 66.511719 164.976562 L 111.511719 164.976562 L 111.511719 209.976562 L 66.511719 209.976562 Z M 66.511719 164.976562 " clip-rule="nonzero"/></clipPath></defs><g clip-path="url(#id1)"><path fill="#ffffff" d="M 88.878906 163.34375 C 75.621094 163.34375 64.878906 174.089844 64.878906 187.34375 C 64.878906 200.597656 75.621094 211.34375 88.878906 211.34375 C 102.132812 211.34375 112.878906 200.597656 112.878906 187.34375 C 112.878906 174.089844 102.132812 163.34375 88.878906 163.34375 " fill-opacity="1" fill-rule="nonzero"/></g><g clip-path="url(#id2)"><path fill="#ffffff" d="M 53.011719 152.308594 L 53.011719 222.808594 L 123.511719 222.808594 L 123.511719 152.308594 L 53.011719 152.308594 M 122.0625 221.355469 L 54.429688 221.355469 L 54.429688 153.730469 L 122.0625 153.730469 L 122.0625 221.355469 " fill-opacity="1" fill-rule="nonzero"/></g><g clip-path="url(#id3)"><path fill="#ffffff" d="M 122.808594 152.308594 L 122.808594 222.808594 L 321.558594 222.808594 L 321.558594 152.308594 L 122.808594 152.308594 M 320.105469 221.355469 L 124.230469 221.355469 L 124.230469 153.730469 L 320.105469 153.730469 L 320.105469 221.355469 " fill-opacity="1" fill-rule="nonzero"/></g><g clip-path="url(#id4)"><path fill="#000000" d="M 84.917969 207.820312 C 84.527344 207.492188 84.242188 207.089844 84.324219 206.648438 C 84.546875 205.441406 85.347656 206.558594 85.347656 205.890625 C 85.347656 205.21875 84.945312 205.085938 84.945312 205.085938 C 85.527344 204.953125 85.839844 204.328125 86.242188 204.015625 C 86.644531 203.703125 86.910156 202.363281 86.910156 202.363281 C 88.785156 202.410156 88.964844 199.773438 89.410156 199.195312 C 89.855469 198.613281 91.910156 198.035156 90.394531 197.320312 C 88.875 196.605469 88.429688 196.785156 87.179688 196.292969 C 85.929688 195.800781 84.992188 195.847656 84.992188 195.847656 C 85.171875 195.710938 85.394531 194.0625 83.785156 193.882812 C 82.179688 193.703125 80.929688 192.453125 80.929688 192.453125 C 79.367188 192.589844 78.339844 191.695312 78.339844 191.695312 C 77.136719 191.652344 76.601562 192.902344 76.601562 192.902344 C 75.839844 192.410156 75.214844 192.902344 75.214844 192.902344 C 74.636719 192.542969 74.589844 191.917969 74.589844 191.917969 C 74.589844 190.445312 74.191406 190.667969 74.191406 190.667969 C 73.074219 190.667969 73.296875 190.3125 73.296875 190.3125 C 73.253906 189.730469 73.609375 188.617188 73.609375 188.617188 C 72.941406 188.617188 72.582031 189.152344 72.582031 189.152344 C 71.109375 191.027344 70.441406 187.050781 71.15625 186.070312 C 71.867188 185.089844 72.71875 185.757812 72.71875 185.757812 C 72.851562 185.445312 74.414062 185 74.457031 185.757812 C 74.503906 186.515625 75.214844 187.410156 75.214844 187.410156 C 75.351562 186.550781 75.183594 184.921875 75.183594 184.921875 C 76.992188 183.816406 76.722656 183.113281 76.722656 183.113281 C 77.292969 180.9375 78.867188 181.207031 78.867188 181.207031 C 78.628906 180.234375 80.472656 179.800781 80.472656 179.800781 C 80.082031 180.667969 81.746094 179.765625 81.746094 179.765625 C 82.246094 179.296875 81.542969 179.398438 81.542969 179.398438 C 80.539062 179.597656 80.941406 178.359375 80.941406 178.359375 C 79.886719 178.277344 79.378906 178.789062 79.222656 178.984375 C 79.945312 177.957031 80.742188 177.859375 80.742188 177.859375 C 82.539062 177.957031 82.976562 177.742188 83.082031 177.625 C 82.820312 178.121094 82.203125 178.761719 83.484375 178.796875 C 84.824219 178.828125 85.058594 178.257812 84.222656 178.160156 C 83.386719 178.058594 83.621094 177.691406 83.621094 177.691406 C 84.488281 176.316406 82.546875 175.75 82.582031 175.648438 C 82.613281 175.546875 82.546875 173.503906 82.179688 174.109375 C 81.8125 174.710938 81.042969 174.710938 81.042969 174.710938 C 81.042969 174.710938 80.941406 173.472656 79.734375 173.371094 C 78.53125 173.269531 78.730469 173.640625 78.730469 174.410156 C 78.730469 175.179688 79.5 175.113281 78.429688 175.648438 C 77.359375 176.183594 77.492188 176.71875 77.324219 177.320312 C 77.15625 177.925781 76.921875 177.421875 76.921875 177.421875 C 76.992188 175.546875 76.621094 175.75 76.621094 175.75 C 74.582031 175.113281 75.382812 174.410156 76.421875 173.269531 C 77.460938 172.132812 78.464844 172.703125 78.464844 172.703125 C 79.433594 172.835938 78.195312 172 78.464844 172 C 78.730469 172 79.433594 171.394531 79.871094 170.960938 C 80.304688 170.527344 79.734375 170.425781 79.03125 170.859375 C 78.332031 171.296875 78.933594 169.757812 78.933594 169.757812 C 78.597656 169.65625 78.496094 170.828125 76.789062 171.128906 C 76.535156 171.175781 76.328125 171.191406 76.160156 171.191406 C 79.695312 168.394531 84.160156 166.722656 89.007812 166.722656 C 93.277344 166.722656 97.246094 168.019531 100.546875 170.234375 C 100.535156 170.238281 100.523438 170.242188 100.515625 170.246094 C 100.054688 170.449219 100.234375 170.671875 100.234375 170.671875 C 100.457031 171.453125 100.75 172.792969 100.28125 173.125 C 99.8125 173.460938 100.058594 173.75 100.058594 173.75 C 101.308594 176.25 100.996094 173.75 101.777344 174.644531 C 102.558594 175.535156 101.820312 175.894531 102.644531 175.917969 C 103.472656 175.9375 103.785156 174.621094 103.070312 174.21875 C 102.355469 173.820312 102.175781 172.210938 102.175781 172.210938 C 102.535156 172.03125 102.578125 172.324219 102.578125 172.324219 C 102.46875 172.570312 102.9375 173.820312 103.359375 173.976562 C 103.785156 174.128906 103.941406 174.242188 104.097656 174.980469 C 104.253906 175.714844 104.429688 175.625 104.429688 175.625 C 104.675781 176.496094 103.539062 176.140625 102.332031 176.40625 C 101.128906 176.675781 101.464844 177.390625 101.464844 177.390625 L 101.0625 177.390625 L 100.839844 177.945312 C 98.828125 178.972656 100.4375 179.109375 100.4375 179.109375 C 100.4375 179.109375 101.328125 180.445312 100.242188 180.492188 C 99.160156 180.535156 98.875 181.160156 98.785156 182.007812 C 98.695312 182.859375 99.988281 183.035156 99.988281 183.035156 L 100.242188 183.527344 C 100.242188 183.527344 99.097656 184.417969 98.828125 185.402344 C 98.5625 186.382812 97.132812 187.589844 96.953125 187.855469 C 96.777344 188.125 97.402344 189.507812 96.820312 190.3125 C 96.242188 191.113281 96.820312 191.917969 96.820312 191.917969 C 97.445312 191.964844 98.382812 195 99.542969 194.417969 C 99.621094 194.378906 99.695312 194.34375 99.773438 194.308594 C 100.8125 193.847656 101.550781 193.925781 101.550781 193.925781 C 102.980469 193.300781 103.113281 194.460938 103.113281 194.460938 C 104.050781 194.148438 103.917969 195.085938 103.917969 195.085938 C 102.757812 196.382812 103.828125 196.292969 103.425781 198.078125 C 103.027344 199.863281 101.863281 199.910156 101.777344 201.292969 C 101.6875 202.675781 100.078125 204.59375 100.078125 204.59375 C 100.078125 204.59375 100.160156 204.769531 100.480469 204.757812 C 97.191406 206.949219 93.246094 208.226562 89.007812 208.226562 C 87.609375 208.226562 86.242188 208.085938 84.917969 207.820312 Z M 68.257812 187.472656 C 68.257812 186.90625 68.28125 186.347656 68.324219 185.789062 C 68.863281 187.125 69.707031 187.851562 69.683594 188.347656 C 69.636719 189.195312 69.457031 189.640625 71.109375 190.3125 C 72.761719 190.980469 73.609375 192.007812 73.96875 192.363281 C 74.324219 192.722656 75.082031 193.703125 75.574219 193.347656 C 76.066406 192.988281 77.269531 194.417969 76.644531 195 C 76.019531 195.578125 76.332031 196.472656 76.332031 196.472656 C 76.332031 196.472656 77.3125 199.820312 79.457031 200.398438 C 81.601562 200.980469 81.242188 201.738281 81.242188 201.738281 C 81.191406 204.898438 82.835938 206.703125 84.3125 207.691406 C 75.125 205.558594 68.257812 197.304688 68.257812 187.472656 Z M 102.378906 180.847656 C 102.332031 180.378906 103.113281 180.582031 103.113281 180.582031 C 103.269531 180.066406 103.71875 180.269531 103.71875 180.269531 C 103.738281 180.511719 104.453125 181.25 105.035156 181.472656 C 105.613281 181.695312 105.835938 182.0625 105.324219 182.308594 C 104.8125 182.558594 105.257812 182.746094 105.257812 182.746094 C 105.570312 182.992188 105.882812 182.230469 105.859375 181.761719 C 105.835938 181.296875 105.613281 181.207031 105.234375 180.9375 C 104.855469 180.667969 104.339844 179.820312 104.339844 179.820312 C 106.285156 180.78125 106.441406 182.164062 106.730469 182.566406 C 107.019531 182.96875 106.929688 183.503906 107.222656 182.855469 C 107.511719 182.210938 106.371094 181.988281 107.199219 181.472656 C 108.023438 180.960938 107.710938 179.488281 107.710938 179.488281 C 108.066406 180.078125 108.28125 180.042969 108.363281 179.992188 C 108.496094 180.328125 108.617188 180.667969 108.730469 181.011719 C 108.628906 180.945312 108.539062 180.902344 108.46875 180.9375 C 108.292969 181.027344 108.558594 181.25 108.023438 181.363281 C 107.488281 181.472656 107.777344 182.097656 107.777344 182.097656 C 107.980469 183.28125 109.207031 183.324219 109.207031 183.324219 L 109.207031 185 C 108.160156 185.023438 107.222656 184.332031 107.222656 184.332031 C 106.597656 184.152344 106.683594 185.132812 106.683594 185.132812 C 104.898438 183.394531 104.386719 185.289062 104.585938 183.574219 C 104.789062 181.855469 102.132812 183.527344 101.152344 183.570312 C 100.167969 183.617188 100.636719 182.925781 100.636719 182.925781 C 101.753906 183.101562 101.730469 181.183594 101.84375 181.316406 C 101.953125 181.449219 102.421875 181.316406 102.378906 180.847656 Z M 89.007812 164.972656 C 76.601562 164.972656 66.507812 175.066406 66.507812 187.472656 C 66.507812 199.882812 76.601562 209.976562 89.007812 209.976562 C 101.417969 209.976562 111.511719 199.882812 111.511719 187.472656 C 111.511719 175.066406 101.417969 164.972656 89.007812 164.972656 " fill-opacity="1" fill-rule="nonzero"/></g><path fill="#000000" d="M 74.234375 188.347656 C 74.234375 188.347656 74.851562 188.257812 75.835938 188.972656 C 76.824219 189.6875 77.179688 188.972656 77.179688 188.972656 C 77.179688 188.972656 74.992188 187.605469 74.234375 188.347656 " fill-opacity="1" fill-rule="nonzero"/><path fill="#000000" d="M 77.539062 189.441406 C 77.539062 189.441406 77.851562 189.910156 78.429688 189.796875 C 79.011719 189.6875 79.300781 189.699219 79.613281 189.816406 C 79.613281 189.816406 78.117188 188.90625 77.539062 189.441406 " fill-opacity="1" fill-rule="nonzero"/><path fill="#000000" d="M 98.851562 175.882812 C 98.851562 176.234375 99.402344 176.21875 99.253906 176.921875 C 99.101562 177.625 99.3125 177.9375 99.503906 177.90625 C 99.503906 177.90625 100.558594 177.773438 100.761719 177.472656 C 100.960938 177.171875 101.230469 176.851562 100.359375 176.617188 C 99.488281 176.386719 99.453125 175.179688 99.285156 174.996094 C 99.121094 174.8125 98.601562 174.976562 98.667969 174.609375 C 98.734375 174.242188 97.765625 174.710938 98.148438 175.113281 C 98.535156 175.515625 98.851562 175.53125 98.851562 175.882812 " fill-opacity="1" fill-rule="nonzero"/><path fill="#000000" d="M 98.058594 177.472656 C 98.199219 177.390625 98.71875 177.320312 98.75 176.734375 C 98.785156 176.148438 98.542969 175.933594 98.40625 175.933594 C 98.265625 175.933594 97.769531 175.933594 97.914062 176.703125 C 98.058594 177.472656 98.058594 177.472656 98.058594 177.472656 " fill-opacity="1" fill-rule="nonzero"/><g fill="#ffffff" fill-opacity="1"><g transform="translate(142.787748, 190.784416)"><g><path d="M 9.75 -19.097656 C 4.324219 -19.097656 0 -14.773438 0 -9.398438 C 0 -3.972656 4.324219 0.351562 9.75 0.351562 C 14.148438 0.351562 18.046875 -2.675781 19.148438 -6.949219 L 18.875 -6.949219 C 17.574219 -3.375 14.347656 -0.75 10.472656 -0.851562 C 6.523438 -0.976562 3 -4.5 3 -9.398438 C 3 -14.597656 6.773438 -18.171875 10.824219 -17.949219 C 14.5 -17.75 17.171875 -14.972656 18.097656 -11.773438 L 18.421875 -11.773438 L 18.421875 -16.074219 C 17.699219 -16.046875 16.671875 -16.75 16.074219 -17.199219 C 14.046875 -18.574219 12.125 -19.097656 9.75 -19.097656 Z M 9.75 -19.097656 "/></g></g></g><g fill="#ffffff" fill-opacity="1"><g transform="translate(164.009384, 190.784416)"><g><path d="M 6.125 -12.25 C 2.75 -12.25 0 -9.5 0 -6.125 C 0 -2.75 2.75 0 6.125 0 C 9.5 0 12.25 -2.75 12.25 -6.125 C 12.25 -9.5 9.5 -12.25 6.125 -12.25 Z M 8.800781 -1.601562 C 7.023438 -0.550781 4.398438 -1.726562 2.925781 -4.25 C 1.449219 -6.75 1.675781 -9.625 3.449219 -10.648438 C 5.222656 -11.699219 7.847656 -10.523438 9.324219 -8.023438 C 10.800781 -5.5 10.574219 -2.625 8.800781 -1.601562 Z M 8.800781 -1.601562 "/></g></g></g><g fill="#ffffff" fill-opacity="1"><g transform="translate(178.332111, 190.784416)"><g><path d="M 0 -12.25 C 0.351562 -11.324219 0.449219 -10.472656 0.449219 -9.199219 L 0.449219 -3.050781 C 0.449219 -1.800781 0.351562 -0.949219 0 0 C 1.101562 0 2.199219 0 3.300781 0 C 2.925781 -0.949219 2.851562 -1.800781 2.851562 -3.050781 L 2.851562 -9.175781 C 3.875 -10 5.148438 -10.847656 5.972656 -10.898438 C 7.148438 -10.972656 7.949219 -10.398438 7.949219 -8.625 L 7.949219 -3.050781 C 7.949219 -1.800781 7.875 -0.949219 7.5 0 C 8.597656 0 9.699219 0 10.800781 0 C 10.449219 -0.949219 10.347656 -1.800781 10.347656 -3.050781 C 10.347656 -4.847656 10.347656 -7.222656 10.347656 -9.125 C 10.347656 -9.148438 10.347656 -9.148438 10.347656 -9.175781 C 11.375 -10 12.648438 -10.847656 13.472656 -10.898438 C 14.648438 -10.972656 15.449219 -10.398438 15.449219 -8.625 L 15.449219 -3.050781 C 15.449219 -1.800781 15.375 -0.949219 15.023438 0 C 16.125 0 17.222656 0 18.296875 0 C 17.949219 -0.949219 17.875 -1.800781 17.875 -3.050781 C 17.875 -4.847656 17.875 -7.222656 17.875 -9.125 C 17.875 -11.199219 16.722656 -12.25 14.671875 -12.25 C 13.25 -12.25 11.625 -11.148438 10.273438 -10.050781 C 9.972656 -11.523438 8.898438 -12.25 7.175781 -12.25 C 5.75 -12.25 4.175781 -11.175781 2.824219 -10.125 C 2.800781 -10.847656 2.699219 -11.523438 2.398438 -12.25 Z M 0 -12.25 "/></g></g></g><g fill="#ffffff" fill-opacity="1"><g transform="translate(198.753874, 190.784416)"><g><path d="M 0 -12.25 C 0.351562 -11.324219 0.449219 -10.472656 0.449219 -9.199219 L 0.449219 -3.050781 C 0.449219 -1.800781 0.351562 -0.949219 0 0 C 1.101562 0 2.199219 0 3.300781 0 C 2.925781 -0.949219 2.851562 -1.800781 2.851562 -3.050781 L 2.851562 -9.175781 C 3.875 -10 5.148438 -10.847656 5.972656 -10.898438 C 7.148438 -10.972656 7.949219 -10.398438 7.949219 -8.625 L 7.949219 -3.050781 C 7.949219 -1.800781 7.875 -0.949219 7.5 0 C 8.597656 0 9.699219 0 10.800781 0 C 10.449219 -0.949219 10.347656 -1.800781 10.347656 -3.050781 C 10.347656 -4.847656 10.347656 -7.222656 10.347656 -9.125 C 10.347656 -9.148438 10.347656 -9.148438 10.347656 -9.175781 C 11.375 -10 12.648438 -10.847656 13.472656 -10.898438 C 14.648438 -10.972656 15.449219 -10.398438 15.449219 -8.625 L 15.449219 -3.050781 C 15.449219 -1.800781 15.375 -0.949219 15.023438 0 C 16.125 0 17.222656 0 18.296875 0 C 17.949219 -0.949219 17.875 -1.800781 17.875 -3.050781 C 17.875 -4.847656 17.875 -7.222656 17.875 -9.125 C 17.875 -11.199219 16.722656 -12.25 14.671875 -12.25 C 13.25 -12.25 11.625 -11.148438 10.273438 -10.050781 C 9.972656 -11.523438 8.898438 -12.25 7.175781 -12.25 C 5.75 -12.25 4.175781 -11.175781 2.824219 -10.125 C 2.800781 -10.847656 2.699219 -11.523438 2.398438 -12.25 Z M 0 -12.25 "/></g></g></g><g fill="#ffffff" fill-opacity="1"><g transform="translate(219.175637, 190.784416)"><g><path d="M 6.125 -12.25 C 2.75 -12.25 0 -9.5 0 -6.125 C 0 -2.75 2.75 0 6.125 0 C 9.5 0 12.25 -2.75 12.25 -6.125 C 12.25 -9.5 9.5 -12.25 6.125 -12.25 Z M 8.800781 -1.601562 C 7.023438 -0.550781 4.398438 -1.726562 2.925781 -4.25 C 1.449219 -6.75 1.675781 -9.625 3.449219 -10.648438 C 5.222656 -11.699219 7.847656 -10.523438 9.324219 -8.023438 C 10.800781 -5.5 10.574219 -2.625 8.800781 -1.601562 Z M 8.800781 -1.601562 "/></g></g></g><g fill="#ffffff" fill-opacity="1"><g transform="translate(233.498363, 190.784416)"><g><path d="M 0 -12.25 C 0.351562 -11.324219 0.449219 -10.472656 0.449219 -9.199219 L 0.449219 -3.050781 C 0.449219 -1.800781 0.351562 -0.949219 0 0 C 1.101562 0 2.199219 0 3.300781 0 C 2.925781 -0.949219 2.851562 -1.800781 2.851562 -3.050781 L 2.851562 -9.023438 C 2.851562 -9.074219 2.851562 -9.148438 2.851562 -9.222656 C 3.648438 -9.675781 4.824219 -10.273438 5.875 -10.625 C 7.722656 -11.222656 9.199219 -11.023438 9.199219 -8.625 L 9.199219 -3.050781 C 9.199219 -1.800781 9.097656 -0.949219 8.75 0 C 9.847656 0 10.949219 0 12.046875 0 C 11.699219 -0.949219 11.597656 -1.800781 11.597656 -3.050781 C 11.597656 -4.847656 11.597656 -7.222656 11.597656 -9.125 C 11.597656 -11.199219 10.472656 -12.25 8.425781 -12.25 C 6.449219 -12.25 4.398438 -11.125 2.824219 -10.148438 C 2.800781 -10.875 2.675781 -11.550781 2.398438 -12.25 Z M 0 -12.25 "/></g></g></g><g fill="#ffffff" fill-opacity="1"><g transform="translate(247.646121, 190.784416)"><g><path d="M 0 0 C 2.476562 0 4.949219 0 7.425781 0 C 12.597656 0 17.25 -3.226562 17.25 -9.375 C 17.25 -15.523438 12.597656 -18.75 7.425781 -18.75 C 4.949219 -18.75 2.476562 -18.75 0 -18.75 C 0.351562 -17.796875 0.449219 -16.699219 0.449219 -15.421875 C 0.449219 -13.375 0.449219 -5.375 0.449219 -3.324219 C 0.449219 -2.050781 0.351562 -0.949219 0 0 Z M 3.324219 -17.773438 L 7.425781 -17.773438 C 10.972656 -17.773438 14.296875 -14.546875 14.296875 -9.375 C 14.296875 -4.199219 10.972656 -0.976562 7.425781 -0.976562 L 3.324219 -0.976562 Z M 3.324219 -17.773438 "/></g></g></g><g fill="#ffffff" fill-opacity="1"><g transform="translate(267.018049, 190.784416)"><g><path d="M 13.023438 0 L 13.199219 -2.851562 L 12.972656 -2.851562 C 12.773438 -2.324219 11.921875 -0.976562 9.675781 -0.976562 L 3.324219 -0.976562 L 3.324219 -8.097656 L 6.074219 -8.097656 C 8.324219 -8.097656 9.175781 -6.75 9.375 -6.222656 L 9.597656 -6.222656 C 9.597656 -7.800781 9.597656 -9.375 9.597656 -10.949219 L 9.375 -10.949219 C 9.175781 -10.425781 8.324219 -9.074219 6.074219 -9.074219 L 3.324219 -9.074219 L 3.324219 -17.773438 L 8.972656 -17.773438 C 11.222656 -17.773438 12.046875 -16.421875 12.273438 -15.898438 L 12.472656 -15.898438 L 12.296875 -18.75 L 0 -18.75 C 0.351562 -17.796875 0.449219 -16.699219 0.449219 -15.421875 C 0.449219 -13.375 0.449219 -5.375 0.449219 -3.324219 C 0.449219 -2.050781 0.351562 -0.949219 0 0 Z M 13.023438 0 "/></g></g></g><g fill="#ffffff" fill-opacity="1"><g transform="translate(282.315628, 190.784416)"><g><path d="M 4.199219 -18.75 L 0 -18.75 C 0.726562 -18.074219 1.75 -16.824219 2.324219 -16 L 7.472656 -8.625 L 3.25 -3.449219 C 2.101562 -2.074219 1.351562 -1.226562 0 0 L 2.199219 0 C 2.601562 -0.898438 3.199219 -1.75 3.726562 -2.5 L 8.050781 -7.800781 L 11.898438 -2.273438 C 12.398438 -1.523438 12.824219 -0.898438 13.222656 0 L 17.421875 0 C 16.671875 -0.675781 15.671875 -1.925781 15.074219 -2.75 L 9.949219 -10.125 L 14.171875 -15.296875 C 15.296875 -16.671875 16.046875 -17.523438 17.421875 -18.75 L 15.222656 -18.75 C 14.796875 -17.847656 14.222656 -17 13.699219 -16.25 L 9.375 -10.949219 L 5.523438 -16.472656 C 5 -17.222656 4.597656 -17.847656 4.199219 -18.75 Z M 4.199219 -18.75 "/></g></g></g><g fill="#ffffff" fill-opacity="1"><g transform="translate(152.781874, 203.692774)"><g><path d="M 2.203125 0 L 2.828125 0 L 2.828125 -4.734375 L 4.972656 -4.734375 L 4.972656 -5.289062 L 0.0585938 -5.289062 L 0.0585938 -4.734375 L 2.203125 -4.734375 Z M 2.203125 0 "/></g></g></g><g fill="#ffffff" fill-opacity="1"><g transform="translate(159.494397, 203.692774)"><g><path d="M 0.414062 0 L 1.035156 0 L 1.035156 -2.488281 L 4.710938 -2.488281 L 4.710938 0 L 5.332031 0 L 5.332031 -5.289062 L 4.710938 -5.289062 L 4.710938 -3.039062 L 1.035156 -3.039062 L 1.035156 -5.289062 L 0.414062 -5.289062 Z M 0.414062 0 "/></g></g></g><g fill="#ffffff" fill-opacity="1"><g transform="translate(166.926924, 203.692774)"><g><path d="M 0.414062 0 L 4.851562 0 L 4.851562 -0.554688 L 1.019531 -0.554688 L 1.019531 -2.460938 L 4.476562 -2.460938 L 4.476562 -3 L 1.019531 -3 L 1.019531 -4.734375 L 4.777344 -4.734375 L 4.777344 -5.289062 L 0.414062 -5.289062 Z M 0.414062 0 "/></g></g></g><g fill="#ffffff" fill-opacity="1"><g transform="translate(173.639446, 203.692774)"><g/></g></g><g fill="#ffffff" fill-opacity="1"><g transform="translate(177.524453, 203.692774)"><g><path d="M 0.414062 0 L 1.027344 0 L 1.027344 -2.003906 L 3.316406 -2.003906 C 4.523438 -2.003906 5.28125 -2.648438 5.28125 -3.644531 C 5.28125 -4.640625 4.53125 -5.289062 3.316406 -5.289062 L 0.414062 -5.289062 Z M 1.027344 -2.558594 L 1.027344 -4.734375 L 3.277344 -4.734375 C 4.132812 -4.734375 4.65625 -4.304688 4.65625 -3.644531 C 4.65625 -2.984375 4.125 -2.558594 3.277344 -2.558594 Z M 1.027344 -2.558594 "/></g></g></g><g fill="#ffffff" fill-opacity="1"><g transform="translate(184.626981, 203.692774)"><g><path d="M 0.414062 0 L 4.851562 0 L 4.851562 -0.554688 L 1.019531 -0.554688 L 1.019531 -2.460938 L 4.476562 -2.460938 L 4.476562 -3 L 1.019531 -3 L 1.019531 -4.734375 L 4.777344 -4.734375 L 4.777344 -5.289062 L 0.414062 -5.289062 Z M 0.414062 0 "/></g></g></g><g fill="#ffffff" fill-opacity="1"><g transform="translate(191.339504, 203.692774)"><g><path d="M 3.503906 0.1875 C 5.429688 0.1875 6.726562 -0.960938 6.726562 -2.640625 C 6.726562 -4.328125 5.429688 -5.476562 3.503906 -5.476562 C 1.582031 -5.476562 0.285156 -4.328125 0.285156 -2.640625 C 0.285156 -0.960938 1.582031 0.1875 3.503906 0.1875 Z M 3.503906 -0.367188 C 1.957031 -0.367188 0.90625 -1.289062 0.90625 -2.640625 C 0.90625 -3.996094 1.957031 -4.921875 3.503906 -4.921875 C 5.046875 -4.921875 6.097656 -3.996094 6.097656 -2.640625 C 6.097656 -1.289062 5.046875 -0.367188 3.503906 -0.367188 Z M 3.503906 -0.367188 "/></g></g></g><g fill="#ffffff" fill-opacity="1"><g transform="translate(200.032043, 203.692774)"><g><path d="M 0.414062 0 L 1.027344 0 L 1.027344 -2.003906 L 3.316406 -2.003906 C 4.523438 -2.003906 5.28125 -2.648438 5.28125 -3.644531 C 5.28125 -4.640625 4.53125 -5.289062 3.316406 -5.289062 L 0.414062 -5.289062 Z M 1.027344 -2.558594 L 1.027344 -4.734375 L 3.277344 -4.734375 C 4.132812 -4.734375 4.65625 -4.304688 4.65625 -3.644531 C 4.65625 -2.984375 4.125 -2.558594 3.277344 -2.558594 Z M 1.027344 -2.558594 "/></g></g></g><g fill="#ffffff" fill-opacity="1"><g transform="translate(207.134568, 203.692774)"><g><path d="M 0.414062 0 L 4.117188 0 L 4.117188 -0.554688 L 1.035156 -0.554688 L 1.035156 -5.289062 L 0.414062 -5.289062 Z M 0.414062 0 "/></g></g></g><g fill="#ffffff" fill-opacity="1"><g transform="translate(212.999589, 203.692774)"><g><path d="M 0.414062 0 L 4.851562 0 L 4.851562 -0.554688 L 1.019531 -0.554688 L 1.019531 -2.460938 L 4.476562 -2.460938 L 4.476562 -3 L 1.019531 -3 L 1.019531 -4.734375 L 4.777344 -4.734375 L 4.777344 -5.289062 L 0.414062 -5.289062 Z M 0.414062 0 "/></g></g></g><g fill="#ffffff" fill-opacity="1"><g transform="translate(219.71211, 203.692774)"><g><path d="M 0.308594 -3.179688 L 0.601562 -3.179688 L 0.601562 -5.289062 L 0.316406 -5.289062 Z M 0.308594 -3.179688 "/></g></g></g><g fill="#ffffff" fill-opacity="1"><g transform="translate(222.30711, 203.692774)"><g><path d="M 2.910156 0.1875 C 4.261719 0.1875 5.160156 -0.496094 5.160156 -1.46875 C 5.160156 -2.226562 4.589844 -2.691406 3.335938 -2.917969 L 2.234375 -3.121094 C 1.453125 -3.253906 1.125 -3.511719 1.125 -3.953125 C 1.125 -4.507812 1.703125 -4.921875 2.558594 -4.921875 C 3.382812 -4.921875 4.042969 -4.484375 4.246094 -3.863281 L 4.777344 -4.117188 C 4.507812 -4.921875 3.636719 -5.476562 2.550781 -5.476562 C 1.34375 -5.476562 0.496094 -4.835938 0.496094 -3.878906 C 0.496094 -3.140625 0.984375 -2.730469 2.078125 -2.527344 L 3.195312 -2.316406 C 4.140625 -2.144531 4.539062 -1.859375 4.539062 -1.394531 C 4.539062 -0.808594 3.90625 -0.367188 2.925781 -0.367188 C 1.800781 -0.367188 0.886719 -0.96875 0.71875 -1.816406 L 0.148438 -1.582031 C 0.414062 -0.546875 1.515625 0.1875 2.910156 0.1875 Z M 2.910156 0.1875 "/></g></g></g><g fill="#ffffff" fill-opacity="1"><g transform="translate(229.304636, 203.692774)"><g/></g></g><g fill="#ffffff" fill-opacity="1"><g transform="translate(233.189646, 203.692774)"><g><path d="M 0.414062 0 L 4.851562 0 L 4.851562 -0.554688 L 1.019531 -0.554688 L 1.019531 -2.460938 L 4.476562 -2.460938 L 4.476562 -3 L 1.019531 -3 L 1.019531 -4.734375 L 4.777344 -4.734375 L 4.777344 -5.289062 L 0.414062 -5.289062 Z M 0.414062 0 "/></g></g></g><g fill="#ffffff" fill-opacity="1"><g transform="translate(239.902167, 203.692774)"><g><path d="M 0.0585938 0 L 0.847656 0 L 2.738281 -2.324219 L 4.664062 0 L 5.460938 0 L 3.164062 -2.753906 L 5.386719 -5.289062 L 4.589844 -5.289062 L 2.738281 -3.136719 L 0.929688 -5.289062 L 0.136719 -5.289062 L 2.308594 -2.753906 Z M 0.0585938 0 "/></g></g></g><g fill="#ffffff" fill-opacity="1"><g transform="translate(247.102196, 203.692774)"><g><path d="M 3.464844 0.1875 C 4.957031 0.1875 6.097656 -0.613281 6.398438 -1.882812 L 5.804688 -2.046875 C 5.574219 -1.019531 4.65625 -0.367188 3.464844 -0.367188 C 1.90625 -0.367188 0.914062 -1.253906 0.90625 -2.640625 C 0.90625 -4.035156 1.824219 -4.921875 3.261719 -4.921875 C 4.296875 -4.921875 5.09375 -4.359375 5.316406 -3.464844 L 5.894531 -3.652344 C 5.574219 -4.769531 4.546875 -5.476562 3.261719 -5.476562 C 1.433594 -5.476562 0.285156 -4.371094 0.285156 -2.640625 C 0.285156 -0.914062 1.515625 0.1875 3.464844 0.1875 Z M 3.464844 0.1875 "/></g></g></g><g fill="#ffffff" fill-opacity="1"><g transform="translate(255.38223, 203.692774)"><g><path d="M 0.414062 0 L 1.035156 0 L 1.035156 -2.488281 L 4.710938 -2.488281 L 4.710938 0 L 5.332031 0 L 5.332031 -5.289062 L 4.710938 -5.289062 L 4.710938 -3.039062 L 1.035156 -3.039062 L 1.035156 -5.289062 L 0.414062 -5.289062 Z M 0.414062 0 "/></g></g></g><g fill="#ffffff" fill-opacity="1"><g transform="translate(262.814755, 203.692774)"><g><path d="M 0.0585938 0 L 0.726562 0 L 1.3125 -1.265625 L 4.402344 -1.265625 L 4.996094 0 L 5.65625 0 L 3.234375 -5.289062 L 2.488281 -5.289062 Z M 1.546875 -1.824219 L 2.859375 -4.710938 L 2.871094 -4.710938 L 4.175781 -1.824219 Z M 1.546875 -1.824219 "/></g></g></g><g fill="#ffffff" fill-opacity="1"><g transform="translate(270.209781, 203.692774)"><g><path d="M 0.414062 0 L 1.035156 0 L 1.035156 -4.566406 L 1.050781 -4.566406 L 4.515625 0 L 5.347656 0 L 5.347656 -5.289062 L 4.71875 -5.289062 L 4.71875 -0.71875 L 4.710938 -0.71875 L 1.246094 -5.289062 L 0.414062 -5.289062 Z M 0.414062 0 "/></g></g></g><g fill="#ffffff" fill-opacity="1"><g transform="translate(277.657307, 203.692774)"><g><path d="M 3.433594 0.1875 C 4.582031 0.1875 5.503906 -0.308594 6.007812 -1.101562 L 6.015625 -1.101562 L 6.082031 0 L 6.609375 0 L 6.609375 -2.917969 L 2.371094 -2.917969 L 2.371094 -2.378906 L 5.992188 -2.378906 C 5.992188 -1.238281 4.890625 -0.367188 3.511719 -0.367188 C 2.003906 -0.367188 0.90625 -1.328125 0.90625 -2.640625 C 0.90625 -3.984375 1.933594 -4.925781 3.375 -4.921875 C 4.304688 -4.921875 5.167969 -4.425781 5.40625 -3.71875 L 5.984375 -3.90625 C 5.675781 -4.824219 4.566406 -5.476562 3.375 -5.476562 C 1.582031 -5.476562 0.285156 -4.28125 0.285156 -2.640625 C 0.285156 -1.003906 1.605469 0.1875 3.433594 0.1875 Z M 3.433594 0.1875 "/></g></g></g><g fill="#ffffff" fill-opacity="1"><g transform="translate(286.237339, 203.692774)"><g><path d="M 0.414062 0 L 4.851562 0 L 4.851562 -0.554688 L 1.019531 -0.554688 L 1.019531 -2.460938 L 4.476562 -2.460938 L 4.476562 -3 L 1.019531 -3 L 1.019531 -4.734375 L 4.777344 -4.734375 L 4.777344 -5.289062 L 0.414062 -5.289062 Z M 0.414062 0 "/></g></g></g></svg>